<svg width="20" height="20" viewBox="0 0 20 20" fill="none" xmlns="http://www.w3.org/2000/svg">
<g clip-path="url(#clip0_35_350)">
<path d="M0.976257 19.9998C0.783084 19.9998 0.594241 19.9425 0.433612 19.8352C0.272984 19.7279 0.147787 19.5754 0.0738587 19.3969C-6.99545e-05 19.2185 -0.0194095 19.0221 0.0182865 18.8326C0.0559824 18.6432 0.14902 18.4692 0.285632 18.3326L18.3325 0.2857C18.5157 0.102535 18.7641 -0.000366211 19.0231 -0.000366211C19.2822 -0.000366211 19.5306 0.102535 19.7138 0.2857C19.8969 0.468865 19.9998 0.71729 19.9998 0.976325C19.9998 1.23536 19.8969 1.48378 19.7138 1.66695L1.66688 19.7138C1.57627 19.8046 1.46861 19.8766 1.3501 19.9257C1.23158 19.9748 1.10453 19.9999 0.976257 19.9998Z" fill="#5A15EA"/>
<path d="M19.0233 19.9998C18.895 19.9999 18.768 19.9748 18.6495 19.9257C18.531 19.8766 18.4233 19.8046 18.3327 19.7138L0.285822 1.66695C0.102657 1.48378 -0.000244141 1.23536 -0.000244141 0.976325C-0.000244141 0.71729 0.102657 0.468865 0.285822 0.2857C0.468987 0.102535 0.717412 -0.000366211 0.976447 -0.000366211C1.23548 -0.000366211 1.48391 0.102535 1.66707 0.2857L19.7139 18.3326C19.8506 18.4692 19.9436 18.6432 19.9813 18.8326C20.019 19.0221 19.9996 19.2185 19.9257 19.3969C19.8518 19.5754 19.7266 19.7279 19.566 19.8352C19.4053 19.9425 19.2165 19.9998 19.0233 19.9998Z" fill="#5A15EA"/>
</g>
<defs>
<clipPath id="clip0_35_350">
<rect width="20" height="20" fill="white"/>
</clipPath>
</defs>
</svg>
