<svg width="50" height="50" viewBox="0 0 50 50" fill="none" xmlns="http://www.w3.org/2000/svg">
<path d="M24.9066 49.4505C24.688 49.4505 24.4784 49.3637 24.3238 49.2091C24.1692 49.0546 24.0824 48.8449 24.0824 48.6263V37.4725C24.0824 37.2539 24.1692 37.0443 24.3238 36.8897C24.4784 36.7352 24.688 36.6483 24.9066 36.6483C25.1252 36.6483 25.3348 36.7352 25.4894 36.8897C25.6439 37.0443 25.7307 37.2539 25.7307 37.4725V48.6044C25.7337 48.7144 25.7145 48.824 25.6744 48.9265C25.6343 49.0291 25.5741 49.1225 25.4973 49.2014C25.4204 49.2803 25.3286 49.343 25.2271 49.3857C25.1257 49.4285 25.0167 49.4506 24.9066 49.4505Z" fill="#5A15EA"/>
<path d="M24.9066 49.4505C24.704 49.4508 24.5084 49.3765 24.3572 49.2418L19.4121 44.9121C19.3309 44.8399 19.2648 44.7525 19.2174 44.6548C19.17 44.557 19.1423 44.4509 19.1359 44.3425C19.1296 44.2341 19.1446 44.1255 19.1802 44.0229C19.2158 43.9203 19.2713 43.8257 19.3434 43.7445C19.4156 43.6633 19.503 43.5972 19.6007 43.5498C19.6985 43.5024 19.8046 43.4747 19.913 43.4683C20.0214 43.462 20.13 43.477 20.2326 43.5126C20.3352 43.5482 20.4298 43.6037 20.511 43.6758L25.4561 48.0055C25.538 48.076 25.6051 48.162 25.6536 48.2585C25.7021 48.355 25.731 48.4602 25.7387 48.568C25.7464 48.6758 25.7326 48.784 25.6982 48.8864C25.6639 48.9889 25.6096 49.0835 25.5385 49.1648C25.4598 49.2549 25.3626 49.3271 25.2536 49.3764C25.1446 49.4257 25.0263 49.451 24.9066 49.4505Z" fill="#5A15EA"/>
<path d="M24.9066 49.4505C24.7382 49.4521 24.5734 49.402 24.4343 49.307C24.2952 49.212 24.1886 49.0767 24.1287 48.9193C24.0689 48.7619 24.0587 48.5899 24.0995 48.4266C24.1404 48.2632 24.2303 48.1162 24.3571 48.0055L29.3022 43.6758C29.3834 43.6037 29.478 43.5482 29.5806 43.5126C29.6832 43.477 29.7918 43.462 29.9002 43.4683C30.0086 43.4747 30.1147 43.5024 30.2125 43.5498C30.3102 43.5972 30.3976 43.6633 30.4698 43.7445C30.5419 43.8257 30.5974 43.9203 30.633 44.0229C30.6686 44.1255 30.6836 44.2341 30.6773 44.3425C30.6709 44.4509 30.6432 44.557 30.5958 44.6548C30.5484 44.7525 30.4823 44.8399 30.4011 44.9121L25.456 49.2418C25.3056 49.3779 25.1095 49.4524 24.9066 49.4505ZM27.9451 33.3681H21.8626C19.6617 33.3652 17.5516 32.4896 15.9953 30.9333C14.439 29.3769 13.5633 27.2669 13.5604 25.0659V9.13186C13.5583 8.0397 13.7713 6.95781 14.1875 5.94802C14.6036 4.93823 15.2146 4.02033 15.9856 3.24678C16.7566 2.47323 17.6725 1.85918 18.6809 1.43972C19.6893 1.02027 20.7705 0.803634 21.8626 0.802192H27.9451C29.0365 0.800748 30.1175 1.01439 31.1264 1.4309C32.1352 1.84741 33.0521 2.45863 33.8246 3.22963C34.5972 4.00063 35.2102 4.9163 35.6287 5.92432C36.0472 6.93234 36.263 8.01295 36.2637 9.10439V25.0659C36.263 26.1574 36.0472 27.238 35.6287 28.246C35.2102 29.254 34.5972 30.1697 33.8246 30.9407C33.0521 31.7117 32.1352 32.3229 31.1264 32.7394C30.1175 33.1559 29.0365 33.3696 27.9451 33.3681ZM21.8626 2.45054C20.0984 2.452 18.4068 3.15349 17.1593 4.40102C15.9117 5.64854 15.2102 7.34013 15.2088 9.10439V25.0659C15.2117 26.8297 15.9137 28.5205 17.1609 29.7677C18.4081 31.0149 20.0988 31.7169 21.8626 31.7198H27.9451C28.82 31.7212 29.6867 31.5502 30.4956 31.2165C31.3044 30.8829 32.0396 30.3931 32.6591 29.7751C33.2786 29.1572 33.7702 28.4232 34.1058 27.6152C34.4415 26.8072 34.6147 25.9409 34.6154 25.0659V9.13186C34.6183 8.25457 34.4478 7.38536 34.1138 6.57415C33.7797 5.76294 33.2887 5.02574 32.6688 4.40489C32.049 3.78404 31.3126 3.29178 30.5019 2.95639C29.6913 2.621 28.8224 2.44909 27.9451 2.45054H21.8626Z" fill="#5A15EA"/>
<path d="M24.9066 14.489C24.688 14.489 24.4784 14.4022 24.3238 14.2476C24.1692 14.0931 24.0824 13.8834 24.0824 13.6648V9.52748C24.0824 9.3089 24.1692 9.09927 24.3238 8.9447C24.4784 8.79014 24.688 8.70331 24.9066 8.70331C25.1252 8.70331 25.3348 8.79014 25.4894 8.9447C25.6439 9.09927 25.7307 9.3089 25.7307 9.52748V13.6648C25.7307 13.8834 25.6439 14.0931 25.4894 14.2476C25.3348 14.4022 25.1252 14.489 24.9066 14.489Z" fill="#5A15EA"/>
</svg>
