<svg width="25" height="25" viewBox="0 0 25 25" fill="none" xmlns="http://www.w3.org/2000/svg">
<path d="M13.2247 4.05391L22.7223 9.57266C22.8067 9.62155 22.8767 9.69174 22.9254 9.7762C22.974 9.86066 22.9996 9.95643 22.9996 10.0539C22.9996 10.1514 22.974 10.2472 22.9254 10.3316C22.8767 10.4161 22.8067 10.4863 22.7223 10.5352L13.2247 16.0539C12.9382 16.2205 12.6127 16.3083 12.2813 16.3083C11.9499 16.3083 11.6244 16.2205 11.338 16.0539L1.84032 10.5352C1.75598 10.4863 1.68597 10.4161 1.6373 10.3316C1.58863 10.2472 1.56301 10.1514 1.56301 10.0539C1.56301 9.95643 1.58863 9.86066 1.6373 9.7762C1.68597 9.69174 1.75598 9.62155 1.84032 9.57266L11.338 4.05391C11.6246 3.88771 11.95 3.80017 12.2813 3.80017C12.6126 3.80017 12.9381 3.88771 13.2247 4.05391Z" fill="#8CC540"/>
<path d="M13.2247 4.05391L22.7223 9.57266C22.8067 9.62155 22.8767 9.69174 22.9254 9.7762C22.974 9.86066 22.9996 9.95643 22.9996 10.0539C22.9996 10.1514 22.974 10.2472 22.9254 10.3316C22.8767 10.4161 22.8067 10.4863 22.7223 10.5352L13.2247 16.0539C12.9382 16.2205 12.6127 16.3083 12.2813 16.3083C11.9499 16.3083 11.6244 16.2205 11.338 16.0539L1.84032 10.5352C1.75598 10.4863 1.68597 10.4161 1.6373 10.3316C1.58863 10.2472 1.56301 10.1514 1.56301 10.0539C1.56301 9.95643 1.58863 9.86066 1.6373 9.7762C1.68597 9.69174 1.75598 9.62155 1.84032 9.57266L11.338 4.05391C11.6246 3.88771 11.95 3.80017 12.2813 3.80017C12.6126 3.80017 12.9381 3.88771 13.2247 4.05391Z" fill="#8CC540"/>
<path d="M22.7187 10.5395L19.4922 12.4145L13.2266 16.0552C12.6406 16.3911 11.9219 16.3911 11.3359 16.0552L5.07031 12.4145L1.83594 10.5395C1.7519 10.4897 1.68229 10.4188 1.63394 10.3339C1.5856 10.2489 1.56017 10.1529 1.56017 10.0552C1.56017 9.95745 1.5856 9.86141 1.63394 9.77649C1.68229 9.69157 1.7519 9.62068 1.83594 9.5708L11.3359 4.05518C11.9219 3.71924 12.6406 3.71924 13.2266 4.05518L22.7187 9.5708C23.0937 9.78955 23.0937 10.3208 22.7187 10.5395Z" fill="#8CC540"/>
<path d="M13.8156 17.068C13.3445 17.3375 12.8164 17.4789 12.2813 17.4789C11.7461 17.4789 11.218 17.3375 10.7531 17.0719L5.07031 13.7696V16.7031C5.07031 17.3594 5.41406 17.961 5.98438 18.2891L9.94531 20.5781C10.6551 20.9852 11.4591 21.1993 12.2773 21.1993C13.0956 21.1993 13.8996 20.9852 14.6094 20.5781L18.5781 18.2891C19.1406 17.961 19.4922 17.3594 19.4922 16.7031V13.7696L13.8156 17.068ZM22.8906 17.7399V11.7946L21.4836 12.6117V17.7391C21.2624 17.8894 21.0952 18.1066 21.0065 18.359C20.9178 18.6113 20.9124 18.8854 20.9909 19.141C21.0695 19.3967 21.2279 19.6204 21.443 19.7794C21.658 19.9384 21.9184 20.0243 22.1858 20.0244C22.4533 20.0246 22.7137 19.939 22.929 19.7802C23.1442 19.6215 23.3029 19.3979 23.3817 19.1424C23.4606 18.8868 23.4554 18.6127 23.367 18.3603C23.2786 18.1079 23.1117 17.8904 22.8906 17.7399Z" fill="#8CC540"/>
</svg>
