<svg width="24" height="24" viewBox="0 0 24 24" fill="none" xmlns="http://www.w3.org/2000/svg">
<path d="M16.82 0.800049H6.38C4.68792 0.800049 3.06514 1.47223 1.86866 2.66871C0.672176 3.86519 0 5.48797 0 7.18005V17.6201C0 19.3121 0.672176 20.9349 1.86866 22.1314C3.06514 23.3279 4.68792 24 6.38 24H16.82C18.5121 24 20.1349 23.3279 21.3313 22.1314C22.5278 20.9349 23.2 19.3121 23.2 17.6201V7.18005C23.2 5.48797 22.5278 3.86519 21.3313 2.66871C20.1349 1.47223 18.5121 0.800049 16.82 0.800049ZM21.17 16.7036C21.17 18.1004 20.6152 19.4399 19.6275 20.4276C18.6399 21.4152 17.3003 21.9701 15.9036 21.9701H7.2964C5.89966 21.9701 4.56013 21.4152 3.57249 20.4276C2.58485 19.4399 2.03 18.1004 2.03 16.7036V8.09645C2.03 6.69971 2.58485 5.36018 3.57249 4.37254C4.56013 3.3849 5.89966 2.83005 7.2964 2.83005H15.9036C17.3003 2.83005 18.6399 3.3849 19.6275 4.37254C20.6152 5.36018 21.17 6.69971 21.17 8.09645V16.7036Z" fill="#F0F0F0"/>
<path d="M15.8312 8.21267L15.7761 8.15757L15.7297 8.11117C14.6332 7.01847 13.1481 6.40524 11.6001 6.40597C10.8183 6.41129 10.0453 6.57057 9.32518 6.87473C8.60504 7.17888 7.95188 7.62195 7.40303 8.17861C6.85417 8.73528 6.42038 9.39463 6.12642 10.119C5.83247 10.8434 5.68412 11.6186 5.68986 12.4003C5.68867 13.9867 6.31403 15.5095 7.42986 16.6372C7.97642 17.1904 8.6277 17.6292 9.34569 17.9279C10.0637 18.2267 10.834 18.3794 11.6117 18.3772C12.7781 18.3527 13.9123 17.9893 14.8758 17.3314C15.8393 16.6734 16.5906 15.7493 17.0379 14.6717C17.4852 13.5941 17.6093 12.4096 17.3951 11.2627C17.1808 10.1158 16.6374 9.05605 15.8312 8.21267ZM11.6001 16.3327C10.82 16.3436 10.0544 16.1223 9.40053 15.6969C8.74664 15.2715 8.23405 14.6612 7.92795 13.9437C7.62185 13.2262 7.53607 12.4338 7.68152 11.6674C7.82697 10.901 8.19708 10.1952 8.74478 9.63972C9.29248 9.08424 9.99302 8.7042 10.7573 8.54795C11.5216 8.3917 12.3151 8.46629 13.0368 8.76224C13.7586 9.05818 14.376 9.56211 14.8106 10.2099C15.2452 10.8578 15.4773 11.6202 15.4774 12.4003C15.4812 12.9131 15.3839 13.4217 15.1911 13.8969C14.9983 14.3722 14.7137 14.8047 14.3536 15.1699C13.9935 15.5351 13.565 15.8258 13.0925 16.0253C12.6201 16.2248 12.1129 16.3293 11.6001 16.3327ZM19.2648 6.13047C19.2663 6.31656 19.2311 6.50113 19.1612 6.6736C19.0913 6.84608 18.9881 7.00307 18.8574 7.1356C18.7268 7.26813 18.5713 7.37359 18.3998 7.44595C18.2284 7.51831 18.0444 7.55613 17.8583 7.55727C17.6737 7.55719 17.4911 7.52049 17.3208 7.4493C17.1506 7.37812 16.9961 7.27386 16.8665 7.14257C16.67 6.94324 16.5364 6.69062 16.4821 6.41605C16.4279 6.14148 16.4554 5.85702 16.5613 5.59795C16.6672 5.33889 16.8469 5.11661 17.0779 4.95867C17.309 4.80073 17.5813 4.71408 17.8612 4.70947C18.1887 4.70941 18.5058 4.82436 18.7573 5.03427L18.7863 5.06327C18.833 5.10134 18.8758 5.1441 18.9139 5.19087L18.9458 5.22567C19.1533 5.48141 19.2661 5.80109 19.2648 6.13047Z" fill="#F0F0F0"/>
</svg>
