<svg width="130" height="130" viewBox="0 0 130 130" fill="none" xmlns="http://www.w3.org/2000/svg">
<path d="M118.089 38.1649C117.551 38.1649 117.034 38.3789 116.653 38.7598C116.272 39.1408 116.058 39.6574 116.058 40.1962V85.0352C116.058 88.2512 113.442 90.8675 110.226 90.8675H52.9839C53.0816 90.1654 53.136 89.4499 53.136 88.7214C53.1376 86.2741 52.5556 83.8616 51.4384 81.6842H111.514C112.052 81.6842 112.569 81.4702 112.95 81.0892C113.331 80.7083 113.545 80.1917 113.545 79.6529V40.9124C113.545 40.3737 113.331 39.857 112.95 39.4761C112.569 39.0952 112.052 38.8812 111.514 38.8812C110.975 38.8812 110.458 39.0952 110.077 39.4761C109.696 39.857 109.482 40.3737 109.482 40.9124V77.6214H48.4354C45.6437 74.9067 41.8374 73.2301 37.6452 73.2301C33.4529 73.2301 29.6466 74.9067 26.8549 77.6214H24.4105V31.6824H71.663C72.2017 31.6824 72.7184 31.4684 73.0993 31.0875C73.4802 30.7065 73.6943 30.1899 73.6943 29.6512C73.6943 29.1124 73.4802 28.5958 73.0993 28.2149C72.7184 27.8339 72.2017 27.6199 71.663 27.6199H23.4698C21.7483 27.6199 20.348 29.0205 20.348 30.742V79.6527C20.348 80.1914 20.562 80.7081 20.943 81.089C21.3239 81.4699 21.8406 81.6839 22.3793 81.6839H23.8517C22.7343 83.8613 22.1523 86.2738 22.1541 88.7212C22.1541 89.392 22.2018 90.0517 22.2848 90.7004C19.7343 90.0778 17.8351 87.7749 17.8351 85.0352V30.9392C17.8351 27.7235 20.4514 25.1073 23.6674 25.1073H71.663C72.2017 25.1073 72.7184 24.8933 73.0993 24.5123C73.4802 24.1314 73.6943 23.6147 73.6943 23.076C73.6943 22.5373 73.4802 22.0206 73.0993 21.6397C72.7184 21.2588 72.2017 21.0448 71.663 21.0448H23.6668C18.2109 21.0448 13.7721 25.4833 13.7721 30.9392V85.0352C13.7721 90.4198 18.0964 94.8106 23.4541 94.9244C24.6225 97.5816 26.5099 99.8596 28.9034 101.502C18.3468 104.862 10.3939 114.165 9.15712 125.721C9.12677 126.005 9.15639 126.291 9.24406 126.562C9.33174 126.834 9.4755 127.083 9.666 127.295C9.85651 127.507 10.0895 127.677 10.3498 127.793C10.6101 127.909 10.8919 127.969 11.1769 127.969L64.1123 127.968C64.3973 127.968 64.6791 127.908 64.9393 127.792C65.1996 127.676 65.4325 127.507 65.623 127.295C65.8135 127.083 65.9572 126.833 66.0449 126.562C66.1326 126.291 66.1622 126.005 66.1319 125.721C65.8551 123.12 65.2242 120.569 64.2566 118.139H101.694C102.233 118.139 102.75 117.925 103.131 117.544C103.512 117.163 103.726 116.646 103.726 116.107V110.749C103.726 106.675 99.806 103.36 94.9886 103.36H85.0507V94.9297H110.226C115.681 94.9297 120.12 90.4912 120.12 85.035V40.1962C120.121 39.0744 119.211 38.1649 118.089 38.1649ZM46.3861 101.502C47.2747 100.891 48.0976 100.19 48.8417 99.4096V102.41C48.0374 102.07 47.2181 101.767 46.3861 101.502ZM26.2163 88.7212C26.2163 82.4195 31.3432 77.2926 37.6449 77.2926C43.9466 77.2926 49.0735 82.4192 49.0735 88.7212C49.0735 95.0186 43.9537 100.142 37.6581 100.15H37.6314C31.3358 100.142 26.2163 95.0186 26.2163 88.7212ZM13.5413 123.906C15.8217 112.536 25.8068 104.217 37.6345 104.212L37.6452 104.213L37.6556 104.212C41.8209 104.214 45.7554 105.25 49.2078 107.084C49.306 107.15 49.4101 107.206 49.5196 107.254C53.561 109.477 56.9176 112.803 59.1645 116.863C59.2198 117.001 59.2886 117.131 59.3714 117.252C60.4817 119.343 61.2824 121.585 61.7485 123.906L13.5413 123.906ZM99.6635 110.749V114.076H62.2497C60.7658 111.593 58.9136 109.35 56.7564 107.423H94.9889C97.5228 107.423 99.6635 108.946 99.6635 110.749ZM80.9887 103.36H52.9042V94.9297H80.9885V103.36H80.9887ZM66.8756 32.89C61.8904 32.89 57.8348 36.9459 57.8348 41.9308C57.8348 44.4001 58.8308 46.6405 60.4411 48.2739C58.7176 49.0384 57.1436 50.1031 55.7928 51.4186C54.3327 51.1109 52.8445 50.9559 51.3523 50.9559C50.8136 50.9559 50.2969 51.1699 49.916 51.5509C49.535 51.9318 49.321 52.4485 49.321 52.9872V70.8119C49.321 71.3506 49.535 71.8673 49.916 72.2482C50.2969 72.6292 50.8136 72.8432 51.3523 72.8432C57.8845 72.8432 62.7397 73.9212 65.783 76.0477C66.0876 76.2603 66.4445 76.3855 66.8152 76.4095C67.1858 76.4335 67.5559 76.3556 67.8854 76.1841C67.9638 76.1432 68.038 76.0967 68.1093 76.0467L68.1098 76.0475C71.1529 73.921 76.0081 72.8429 82.5406 72.8429C83.0793 72.8429 83.596 72.6289 83.9769 72.248C84.3578 71.867 84.5719 71.3504 84.5719 70.8117V52.9869C84.5719 52.4482 84.3578 51.9316 83.9769 51.5506C83.596 51.1697 83.0793 50.9557 82.5406 50.9557C80.8861 50.9557 79.3574 51.1228 77.9482 51.4086C76.5998 50.0976 75.0295 49.0361 73.3103 48.2737C74.9206 46.6403 75.9167 44.4001 75.9167 41.9308C75.9164 36.9459 71.8608 32.89 66.8756 32.89ZM61.8973 41.9311C61.8973 39.1859 64.1306 36.9528 66.8756 36.9528C69.6206 36.9528 71.8539 39.1861 71.8539 41.9311C71.8539 44.6751 69.6224 46.9077 66.8789 46.9094H66.8723C64.1288 46.9074 61.8973 44.6751 61.8973 41.9311ZM64.9152 70.9726C61.8599 69.6836 58.0455 68.9708 53.3835 68.8139V55.137C58.9382 55.7898 63.0109 58.9961 64.9152 61.2595V70.9726ZM80.5094 68.8139C75.8453 68.9711 72.0337 69.6874 68.9777 70.9775V61.2412C71.1976 58.485 75.1966 55.706 80.5094 55.1276V68.8139ZM66.9274 57.4438C65.263 55.7725 63.0383 54.1354 60.3685 52.9232C62.2988 51.6517 64.5593 50.9733 66.8708 50.9719H66.8804C69.1781 50.9737 71.4257 51.6443 73.3487 52.9019C70.9444 54.0033 68.7667 55.5436 66.9274 57.4438ZM114.364 2.03125H81.7073C78.1287 2.03125 75.2172 4.94279 75.2172 8.52135V30.8681C75.2172 34.4467 78.1285 37.3582 81.7073 37.3582H82.7486L80.8046 43.825C80.6804 44.239 80.6914 44.6819 80.8362 45.0893C80.981 45.4966 81.2519 45.8472 81.6096 46.0899C81.9673 46.3327 82.3932 46.455 82.8252 46.4391C83.2572 46.4232 83.6729 46.2699 84.0117 46.0015L94.9127 37.3585H114.364C117.943 37.3585 120.854 34.447 120.854 30.8684V8.52135C120.854 4.94279 117.943 2.03125 114.364 2.03125ZM116.792 30.8679C116.792 32.2062 115.703 33.2955 114.364 33.2955H94.2051C93.7467 33.2955 93.3022 33.4504 92.9431 33.735L86.5576 38.7976L87.4252 35.9112C87.5164 35.6079 87.5354 35.2874 87.4807 34.9755C87.4259 34.6635 87.299 34.3686 87.11 34.1145C86.921 33.8603 86.6752 33.6538 86.3922 33.5116C86.1092 33.3693 85.7968 33.2952 85.4801 33.2952H81.7073C80.3687 33.2952 79.2797 32.2062 79.2797 30.8676V8.52135C79.2797 7.18301 80.3687 6.09375 81.7073 6.09375H114.364C115.703 6.09375 116.792 7.18275 116.792 8.52135L116.792 30.8679ZM111.768 12.6958C111.768 13.2345 111.554 13.7512 111.173 14.1321C110.792 14.5131 110.275 14.7271 109.737 14.7271H85.9366C85.3979 14.7271 84.8812 14.5131 84.5003 14.1321C84.1194 13.7512 83.9053 13.2345 83.9053 12.6958C83.9053 12.1571 84.1194 11.6404 84.5003 11.2595C84.8812 10.8786 85.3979 10.6646 85.9366 10.6646H109.737C110.275 10.6646 110.792 10.8786 111.173 11.2595C111.554 11.6404 111.768 12.1571 111.768 12.6958ZM111.768 19.7712C111.768 20.3099 111.554 20.8265 111.173 21.2075C110.792 21.5884 110.275 21.8024 109.737 21.8024H85.9366C85.3979 21.8024 84.8812 21.5884 84.5003 21.2075C84.1194 20.8265 83.9053 20.3099 83.9053 19.7712C83.9053 19.2325 84.1194 18.7158 84.5003 18.3349C84.8812 17.9539 85.3979 17.7399 85.9366 17.7399H109.737C110.275 17.7399 110.792 17.9539 111.173 18.3349C111.554 18.7158 111.768 19.2325 111.768 19.7712ZM111.768 26.8465C111.768 27.3852 111.554 27.9019 111.173 28.2828C110.792 28.6638 110.275 28.8778 109.737 28.8778H85.9366C85.3979 28.8778 84.8812 28.6638 84.5003 28.2828C84.1194 27.9019 83.9053 27.3852 83.9053 26.8465C83.9053 26.3078 84.1194 25.7911 84.5003 25.4102C84.8812 25.0293 85.3979 24.8153 85.9366 24.8153H109.737C110.275 24.8153 110.792 25.0293 111.173 25.4102C111.554 25.7911 111.768 26.3078 111.768 26.8465Z" fill="#8CC540"/>
</svg>
