<svg width="130" height="130" viewBox="0 0 130 130" fill="none" xmlns="http://www.w3.org/2000/svg">
<path d="M11.0645 50.3367V86.1371L19.8992 103.806H11.0645V107.839H56.9597C59.5988 107.839 62.2399 108.462 64.5988 109.643L65.5 110.093L66.4012 109.641C68.7741 108.458 71.3888 107.84 74.0403 107.837H119.935V103.804H74.0403C71.1109 103.804 68.1794 104.427 65.5 105.609C62.8082 104.425 59.9004 103.811 56.9597 103.806H30.4556L39.2903 86.1371V75.5806H63.4839V78.9415C63.4855 80.1885 63.9815 81.384 64.8633 82.2657C65.745 83.1475 66.9405 83.6436 68.1875 83.6452C69.6593 83.6452 71.0685 82.9415 71.9516 81.7641L76.5887 75.5806H107.839C112.286 75.5806 115.903 71.9637 115.903 67.5161V23.1613C115.903 18.7137 112.286 15.0968 107.839 15.0968H37.8891C35.8617 13.6728 33.6091 12.6001 31.2258 11.9234V7.03226H35.2581V3H15.0968V7.03226H19.129V11.9234C9.83468 14.5665 3 23.1129 3 33.2419C3 40.1129 6.14314 46.2641 11.0645 50.3367ZM19.129 54.5605V83.6452H15.0968V52.9718C16.375 53.627 17.7218 54.1593 19.129 54.5605ZM34.0121 87.6774L26.2923 103.117C25.8669 103.97 24.4879 103.968 24.0645 103.117L16.3427 87.6774H34.0121ZM31.2258 83.6452V54.5605C32.6189 54.165 33.9696 53.6329 35.2581 52.9718V83.6452H31.2258ZM27.1935 83.6452H23.1613V55.3165C23.8266 55.377 24.496 55.4194 25.1774 55.4194C25.8589 55.4194 26.5282 55.377 27.1935 55.3165V83.6452ZM111.871 23.1613V67.5161C111.871 69.7399 110.062 71.5484 107.839 71.5484H74.5726L68.7278 79.3427C68.379 79.8085 67.5141 79.5222 67.5161 78.9395V71.5484H39.2903V50.3367C41.538 48.4853 43.3984 46.2087 44.765 43.6373C46.1317 41.0659 46.9777 38.2502 47.2547 35.3514C47.5317 32.4526 47.2341 29.5276 46.3792 26.744C45.5242 23.9603 44.1286 21.3726 42.2722 19.129H107.839C110.062 19.129 111.871 20.9375 111.871 23.1613ZM23.1613 7.03226H27.1935V11.1673C26.5282 11.1069 25.8589 11.0645 25.1774 11.0645C24.496 11.0645 23.8266 11.1069 23.1613 11.1673V7.03226ZM25.1774 15.0968C35.1835 15.0968 43.3226 23.2379 43.3226 33.2419C43.3226 43.246 35.1835 51.3871 25.1774 51.3871C15.1714 51.3871 7.03226 43.246 7.03226 33.2419C7.03226 23.2379 15.1714 15.0968 25.1774 15.0968Z" fill="#8CC540"/>
<path d="M25.1774 39.2903C26.4242 39.2863 27.6392 38.8966 28.6557 38.1747C29.6722 37.4527 30.4404 36.4339 30.8548 35.2581H35.2581V31.2258H30.8548C30.554 30.3824 30.0695 29.6163 29.4362 28.9831C28.803 28.3499 28.037 27.8653 27.1935 27.5645V19.129H23.1613V27.5645C21.9854 27.979 20.9666 28.7472 20.2447 29.7637C19.5227 30.7802 19.133 31.9952 19.129 33.2419C19.129 36.5766 21.8427 39.2903 25.1774 39.2903ZM25.1774 31.2258C25.5767 31.2254 25.9672 31.3435 26.2994 31.5651C26.6316 31.7867 26.8906 32.1019 27.0436 32.4707C27.1966 32.8396 27.2367 33.2455 27.1589 33.6372C27.0811 34.0288 26.8888 34.3886 26.6065 34.671C26.3241 34.9534 25.9643 35.1456 25.5727 35.2234C25.181 35.3012 24.775 35.2611 24.4062 35.1081C24.0373 34.9551 23.7222 34.6961 23.5006 34.3639C23.279 34.0317 23.1609 33.6413 23.1613 33.2419C23.1613 32.131 24.0645 31.2258 25.1774 31.2258ZM123.968 111.871H74.0403C71.1109 111.871 68.1794 112.494 65.5 113.675C62.8087 112.49 59.9006 111.875 56.9597 111.871H7.03226C4.80847 111.871 3 113.679 3 115.903V119.935C3 122.159 4.80847 123.968 7.03226 123.968H58.2439C59.7944 126.474 62.5081 128 65.5 128C68.4919 128 71.2056 126.474 72.756 123.968H123.968C126.192 123.968 128 122.159 128 119.935V115.903C128 113.679 126.192 111.871 123.968 111.871ZM123.968 119.935H70.3024L69.5323 121.476C68.7641 123.012 67.2198 123.968 65.5 123.968C63.7802 123.968 62.2359 123.012 61.4677 121.476L60.6976 119.935H7.03226V115.903H56.9597C59.5988 115.903 62.2399 116.526 64.5988 117.708L65.5 118.157L66.4012 117.706C68.7741 116.522 71.3888 115.905 74.0403 115.901H123.968V119.935ZM67.5161 87.6774C64.1814 87.6774 61.4677 90.3911 61.4677 93.7258C61.4677 97.0605 64.1814 99.7742 67.5161 99.7742C70.8508 99.7742 73.5645 97.0605 73.5645 93.7258C73.5645 90.3911 70.8508 87.6774 67.5161 87.6774ZM67.5161 95.7419C66.997 95.7187 66.5069 95.4962 66.1477 95.1206C65.7886 94.745 65.5882 94.2454 65.5882 93.7258C65.5882 93.2062 65.7886 92.7066 66.1477 92.331C66.5069 91.9555 66.997 91.7329 67.5161 91.7097C68.0352 91.7329 68.5254 91.9555 68.8845 92.331C69.2437 92.7066 69.4441 93.2062 69.4441 93.7258C69.4441 94.2454 69.2437 94.745 68.8845 95.1206C68.5254 95.4962 68.0352 95.7187 67.5161 95.7419ZM77.5968 93.7258C77.5968 97.0605 80.3105 99.7742 83.6452 99.7742C86.9798 99.7742 89.6936 97.0605 89.6936 93.7258C89.6936 90.3911 86.9798 87.6774 83.6452 87.6774C80.3105 87.6774 77.5968 90.3911 77.5968 93.7258ZM85.6613 93.7258C85.6381 94.2449 85.4155 94.7351 85.04 95.0942C84.6644 95.4533 84.1648 95.6538 83.6452 95.6538C83.1255 95.6538 82.6259 95.4533 82.2504 95.0942C81.8748 94.7351 81.6523 94.2449 81.629 93.7258C81.6523 93.2067 81.8748 92.7165 82.2504 92.3574C82.6259 91.9983 83.1255 91.7978 83.6452 91.7978C84.1648 91.7978 84.6644 91.9983 85.04 92.3574C85.4155 92.7165 85.6381 93.2067 85.6613 93.7258ZM93.7258 93.7258C93.7258 97.0605 96.4395 99.7742 99.7742 99.7742C103.109 99.7742 105.823 97.0605 105.823 93.7258C105.823 90.3911 103.109 87.6774 99.7742 87.6774C96.4395 87.6774 93.7258 90.3911 93.7258 93.7258ZM101.79 93.7258C101.767 94.2449 101.545 94.7351 101.169 95.0942C100.793 95.4533 100.294 95.6538 99.7742 95.6538C99.2546 95.6538 98.755 95.4533 98.3794 95.0942C98.0038 94.7351 97.7813 94.2449 97.7581 93.7258C97.7813 93.2067 98.0038 92.7165 98.3794 92.3574C98.755 91.9983 99.2546 91.7978 99.7742 91.7978C100.294 91.7978 100.793 91.9983 101.169 92.3574C101.545 92.7165 101.767 93.2067 101.79 93.7258ZM109.264 58.8609L106.413 56.0101L99.7742 62.6492L97.1673 60.0423L94.3165 62.8931L99.7742 68.3508L109.264 58.8609ZM51.3871 63.4839H91.7097V67.5161H51.3871V63.4839ZM51.3871 55.4193H55.4194V59.4516H51.3871V55.4193ZM59.4516 55.4193H91.7097V59.4516H59.4516V55.4193ZM109.264 42.7319L106.413 39.881L99.7742 46.5202L97.1673 43.9133L94.3165 46.7641L99.7742 52.2218L109.264 42.7319ZM51.3871 47.3548H91.7097V51.3871H51.3871V47.3548ZM51.3871 39.2903H55.4194V43.3226H51.3871V39.2903ZM59.4516 39.2903H91.7097V43.3226H59.4516V39.2903ZM109.264 26.6028L106.413 23.752L99.7742 30.3911L97.1673 27.7843L94.3165 30.6351L99.7742 36.0927L109.264 26.6028ZM51.3871 31.2258H91.7097V35.2581H51.3871V31.2258ZM51.3871 23.1613H55.4194V27.1935H51.3871V23.1613ZM59.4516 23.1613H91.7097V27.1935H59.4516V23.1613Z" fill="#8CC540"/>
</svg>
