<svg width="130" height="130" viewBox="0 0 130 130" fill="none" xmlns="http://www.w3.org/2000/svg">
<path d="M110.711 89.6512L86.3363 75.4325C86.0274 75.2537 85.6769 75.1592 85.3199 75.1586C84.963 75.158 84.6122 75.2513 84.3027 75.4291C83.9932 75.6069 83.7359 75.863 83.5566 76.1716C83.3774 76.4802 83.2824 76.8306 83.2813 77.1875V105.625C83.2811 105.982 83.3753 106.334 83.5543 106.643C83.7333 106.952 83.9908 107.209 84.3007 107.387C84.6106 107.565 84.962 107.658 85.3194 107.657C85.6768 107.656 86.0276 107.56 86.3363 107.38L110.711 93.1612C111.018 92.9824 111.273 92.7263 111.45 92.4183C111.627 92.1104 111.72 91.7614 111.72 91.4062C111.72 91.0511 111.627 90.7021 111.45 90.3942C111.273 90.0862 111.018 89.8301 110.711 89.6512ZM87.3438 102.089V80.7239L105.657 91.4062L87.3438 102.089Z" fill="#8CC540"/>
<path d="M115.781 6.09375H14.2188C7.49734 6.09375 2.03125 11.5598 2.03125 18.2812V83.2812C2.03125 90.0027 7.49734 95.4688 14.2188 95.4688H50.4156L49.0608 103.594H48.75C45.3903 103.594 42.6562 106.328 42.6562 109.688C42.6562 113.047 45.3903 115.781 48.75 115.781H74.0452C79.7712 120.821 87.2584 123.906 95.4688 123.906C113.388 123.906 127.969 109.326 127.969 91.4062C127.969 89.6939 127.796 88.0263 127.54 86.385C127.816 85.3731 127.96 84.3299 127.969 83.2812V18.2812C127.969 11.5598 122.503 6.09375 115.781 6.09375ZM6.09375 83.2812V79.2188H65.3616C63.7827 83.0881 62.97 87.2272 62.9688 91.4062H14.2188C9.73781 91.4062 6.09375 87.7622 6.09375 83.2812ZM108.908 61.8516C109.414 60.952 109.682 59.9383 109.688 58.9062C109.688 55.5466 106.953 52.8125 103.594 52.8125C100.234 52.8125 97.5 55.5466 97.5 58.9062C97.5 58.9408 97.5081 58.9753 97.5081 59.0098C96.8297 58.9672 96.1573 58.9062 95.4688 58.9062C94.0895 58.9062 92.7408 59.02 91.4062 59.1886V48.75H115.781V66.0766C113.674 64.3886 111.365 62.9694 108.908 61.8516ZM101.658 59.5136C101.567 59.2332 101.538 58.9364 101.573 58.6437C101.608 58.3511 101.706 58.0695 101.861 57.8186C102.016 57.5676 102.223 57.3533 102.469 57.1905C102.715 57.0277 102.993 56.9203 103.284 56.8757C103.575 56.8311 103.873 56.8504 104.156 56.9322C104.439 57.014 104.701 57.1565 104.924 57.3496C105.147 57.5428 105.325 57.782 105.446 58.0508C105.567 58.3196 105.628 58.6115 105.625 58.9062C105.624 59.174 105.57 59.439 105.466 59.6856C105.362 59.9322 105.209 60.1555 105.018 60.3423C103.913 60.0063 102.792 59.7296 101.658 59.5136ZM73.125 58.9062C73.1246 58.5039 73.2436 58.1105 73.4668 57.7759C73.6901 57.4412 74.0076 57.1802 74.3792 57.0261C74.7509 56.872 75.1599 56.8315 75.5545 56.9099C75.9491 56.9883 76.3115 57.182 76.596 57.4665C76.8805 57.751 77.0742 58.1134 77.1526 58.508C77.231 58.9027 77.1906 59.3116 77.0364 59.6833C76.8823 60.0549 76.6213 60.3724 76.2866 60.5957C75.952 60.8189 75.5586 60.9379 75.1562 60.9375C74.035 60.9375 73.125 60.0255 73.125 58.9062ZM71.0938 69.0625C71.0938 66.822 72.9158 65 75.1562 65C75.5625 65 75.9545 65.0813 76.3323 65.195C74.4178 66.5956 72.6613 68.2002 71.0938 69.9806V69.0625ZM80.2262 62.7209C80.1531 62.6641 80.0759 62.6173 80.0028 62.5605C80.8076 61.5119 81.2458 60.2281 81.25 58.9062C81.25 55.5466 78.5159 52.8125 75.1562 52.8125C71.7966 52.8125 69.0625 55.5466 69.0625 58.9062C69.0625 60.2875 69.5419 61.5489 70.3198 62.5727C69.3029 63.3224 68.4757 64.2999 67.9047 65.4269C67.3336 66.554 67.0345 67.7991 67.0312 69.0625V75.1562H62.9688V48.75H87.3438V59.9767C84.8453 60.6227 82.4545 61.5327 80.2262 62.7209ZM73.125 28.4375C73.1246 28.0352 73.2436 27.6418 73.4668 27.3071C73.6901 26.9724 74.0076 26.7115 74.3792 26.5574C74.7509 26.4032 75.1599 26.3628 75.5545 26.4412C75.9491 26.5195 76.3115 26.7132 76.596 26.9977C76.8805 27.2822 77.0742 27.6447 77.1526 28.0393C77.231 28.4339 77.1906 28.8429 77.0364 29.2145C76.8823 29.5861 76.6213 29.9037 76.2866 30.1269C75.952 30.3502 75.5586 30.4692 75.1562 30.4688C74.035 30.4688 73.125 29.5567 73.125 28.4375ZM71.0938 38.5938C71.0938 36.3533 72.9158 34.5312 75.1562 34.5312C77.3967 34.5312 79.2188 36.3533 79.2188 38.5938V44.6875H71.0938V38.5938ZM101.562 28.4375C101.562 28.0352 101.681 27.6418 101.904 27.3071C102.128 26.9724 102.445 26.7115 102.817 26.5574C103.188 26.4032 103.597 26.3628 103.992 26.4412C104.387 26.5195 104.749 26.7132 105.034 26.9977C105.318 27.2822 105.512 27.6447 105.59 28.0393C105.668 28.4339 105.628 28.8429 105.474 29.2145C105.32 29.5861 105.059 29.9037 104.724 30.1269C104.389 30.3502 103.996 30.4692 103.594 30.4688C102.473 30.4688 101.562 29.5567 101.562 28.4375ZM99.5312 38.5938C99.5312 36.3533 101.353 34.5312 103.594 34.5312C105.834 34.5312 107.656 36.3533 107.656 38.5938V44.6875H99.5312V38.5938ZM115.781 44.6875H111.719V38.5938C111.716 37.3303 111.416 36.0852 110.845 34.9582C110.274 33.8312 109.447 32.8537 108.43 32.1039C109.241 31.0532 109.683 29.7646 109.688 28.4375C109.688 25.0778 106.953 22.3438 103.594 22.3438C100.234 22.3438 97.5 25.0778 97.5 28.4375C97.5 29.8188 97.9794 31.0802 98.7573 32.1039C97.7404 32.8537 96.9132 33.8312 96.3422 34.9582C95.7711 36.0852 95.472 37.3303 95.4688 38.5938V44.6875H91.4062V18.2812H115.781V44.6875ZM87.3438 44.6875H83.2812V38.5938C83.278 37.3303 82.9789 36.0852 82.4078 34.9582C81.8368 33.8312 81.0096 32.8537 79.9927 32.1039C80.8034 31.0532 81.2453 29.7646 81.25 28.4375C81.25 25.0778 78.5159 22.3438 75.1562 22.3438C71.7966 22.3438 69.0625 25.0778 69.0625 28.4375C69.0625 29.8188 69.5419 31.0802 70.3198 32.1039C69.3029 32.8537 68.4757 33.8312 67.9047 34.9582C67.3336 36.0852 67.0345 37.3303 67.0312 38.5938V44.6875H62.9688V18.2812H87.3438V44.6875ZM58.9062 75.1562H14.2188V18.2812H58.9062V75.1562ZM54.533 95.4688H63.2511C63.5966 98.2577 64.3061 100.989 65.3616 103.594H53.1781L54.533 95.4688ZM46.7188 109.688C46.7188 109.149 46.9328 108.632 47.3137 108.251C47.6946 107.87 48.2113 107.656 48.75 107.656H67.3664C68.1931 109.08 69.1133 110.441 70.1391 111.719H48.75C48.2113 111.719 47.6946 111.505 47.3137 111.124C46.9328 110.743 46.7188 110.226 46.7188 109.688ZM95.4688 119.844C79.7875 119.844 67.0312 107.088 67.0312 91.4062C67.0312 75.725 79.7875 62.9688 95.4688 62.9688C111.15 62.9688 123.906 75.725 123.906 91.4062C123.906 107.088 111.15 119.844 95.4688 119.844ZM119.844 69.9827V16.25C119.844 15.7113 119.63 15.1946 119.249 14.8137C118.868 14.4328 118.351 14.2188 117.812 14.2188H12.1875C11.6488 14.2188 11.1321 14.4328 10.7512 14.8137C10.3703 15.1946 10.1562 15.7113 10.1562 16.25V75.1562H6.09375V18.2812C6.09375 13.8003 9.73781 10.1562 14.2188 10.1562H115.781C120.262 10.1562 123.906 13.8003 123.906 18.2812V75.7067C122.762 73.6579 121.4 71.7387 119.844 69.9827Z" fill="#8CC540"/>
<path d="M20.3125 67.0312H52.8125C53.3512 67.0312 53.8679 66.8172 54.2488 66.4363C54.6297 66.0554 54.8438 65.5387 54.8438 65V60.9375C54.8438 53.2838 50.1109 46.7228 43.422 44.003C44.4576 43.0593 45.2854 41.9104 45.853 40.6295C46.4206 39.3486 46.7154 37.9635 46.7188 36.5625C46.7188 30.9623 42.1627 26.4062 36.5625 26.4062C30.9623 26.4062 26.4062 30.9623 26.4062 36.5625C26.4062 39.5098 27.69 42.1464 29.703 44.003C23.0141 46.7228 18.2812 53.2838 18.2812 60.9375V65C18.2812 65.5387 18.4953 66.0554 18.8762 66.4363C19.2571 66.8172 19.7738 67.0312 20.3125 67.0312ZM30.4688 36.5625C30.4688 33.2028 33.2028 30.4688 36.5625 30.4688C39.9222 30.4688 42.6562 33.2028 42.6562 36.5625C42.6562 39.9222 39.9222 42.6562 36.5625 42.6562C33.2028 42.6562 30.4688 39.9222 30.4688 36.5625ZM22.3438 60.9375C22.3438 53.0969 28.7239 46.7188 36.5625 46.7188C44.4011 46.7188 50.7812 53.0969 50.7812 60.9375V62.9688H22.3438V60.9375Z" fill="#8CC540"/>
</svg>
