<svg width="29" height="24" viewBox="0 0 29 24" fill="none" xmlns="http://www.w3.org/2000/svg">
<path d="M28.1713 0.650696C27.8295 0.231118 27.3166 0 26.7268 0C26.4087 0 26.0716 0.066612 25.7249 0.197922L2.01949 9.17958C0.759058 9.65724 0.589411 10.3762 0.600459 10.7623C0.611451 11.1464 0.819873 11.8494 2.08856 12.2552L7.11589 14.0975L9.76544 20.1624C10.0318 21.0013 10.5883 21.5897 11.2986 21.7806C11.4614 21.8243 11.6293 21.8464 11.7979 21.8463C12.3748 21.8463 12.9654 21.5922 13.4755 21.1132L15.6706 19.0508L21.0267 22.7373C21.509 23.0938 22.0339 23.282 22.5457 23.282C23.5844 23.2819 24.4129 22.5215 24.6564 21.3447L28.5333 2.5937C28.6927 1.82307 28.5641 1.13306 28.1713 0.650696ZM8.78201 13.8129L15.6232 10.1442L10.8553 14.5177C10.7719 14.5945 10.7052 14.6879 10.6597 14.7918C10.6141 14.8957 10.5907 15.0079 10.5908 15.1214C10.5904 15.1298 10.5894 15.138 10.5893 15.1464L10.5729 17.9122L8.78201 13.8129ZM12.3522 19.9173C12.3044 19.9624 12.2539 20.0043 12.2008 20.043L12.2209 16.6763L14.2877 18.0988L12.3522 19.9173ZM26.9266 2.26147L23.0497 21.0124C23.0106 21.2015 22.8832 21.6413 22.5456 21.6413C22.3879 21.6413 22.1923 21.5601 21.9949 21.4127C21.9864 21.4064 21.9778 21.4002 21.9691 21.3943L16.0644 17.33L16.0619 17.3284L12.7235 15.0305L21.5424 6.94103C21.6897 6.80593 21.7826 6.62172 21.8037 6.42298C21.8247 6.22424 21.7725 6.02465 21.6569 5.86168C21.5412 5.6987 21.37 5.58357 21.1754 5.53788C20.9809 5.49219 20.7763 5.5191 20.6002 5.61355L7.66372 12.5509L2.63628 10.7086C2.63261 10.7072 2.62892 10.7059 2.62523 10.7046L26.3063 1.73218C26.5058 1.65655 26.6451 1.64069 26.7268 1.64069C26.7674 1.64069 26.8653 1.64517 26.8991 1.68673C26.9424 1.73995 26.997 1.92091 26.9266 2.26147Z" fill="#F0F0F0"/>
</svg>
