<svg width="32" height="21" viewBox="0 0 32 21" fill="none" xmlns="http://www.w3.org/2000/svg">
<path d="M16.1932 20.3997C20.8224 20.3997 19.1718 17.469 19.5291 16.6264C19.5238 15.9971 19.5185 15.3917 19.5398 15.0237C19.8331 15.1064 20.5251 15.4571 21.9544 16.8464C24.1611 19.073 24.7251 20.3997 26.5077 20.3997H29.789C30.829 20.3997 31.3703 19.969 31.641 19.6077C31.9023 19.2584 32.1583 18.645 31.8783 17.6904C31.1463 15.3917 26.877 11.4224 26.6117 11.0038C26.6547 10.9244 26.7005 10.8466 26.749 10.7705H26.7464C27.589 9.65713 30.805 4.83852 31.2783 2.91054C31.28 2.90722 31.2809 2.90358 31.281 2.89987C31.537 2.01988 31.3023 1.44922 31.0597 1.12656C30.6943 0.6439 30.113 0.399902 29.3277 0.399902H26.0464C24.9477 0.399902 24.1144 0.953229 23.6931 1.96255C22.9877 3.75586 21.0064 7.44382 19.5211 8.74914C19.488 7.31242 19.4911 5.87509 19.5305 4.43852C19.5785 2.39188 19.7331 0.399902 17.6091 0.399902H12.4519C11.1212 0.399902 9.84789 1.85322 11.2265 3.57853C12.4319 5.09052 11.6599 5.93317 11.9199 10.1278C10.9065 9.04114 9.1039 6.10651 7.82925 2.35588C7.47192 1.34123 6.93059 0.401236 5.40661 0.401236H2.12531C0.794658 0.401236 0 1.12656 0 2.34121C0 5.06918 6.0386 20.3997 16.1932 20.3997ZM5.40661 2.40121C5.69594 2.40121 5.72527 2.40121 5.93993 3.01054C7.24525 6.8545 10.1732 12.5424 12.3119 12.5424C13.9185 12.5424 13.9185 10.8958 13.9185 10.2758L13.9172 5.33985C13.8292 3.70653 13.2345 2.89321 12.8439 2.39988L17.5211 2.40521C17.5238 2.42788 17.4945 7.86515 17.5345 9.18247C17.5345 11.0531 19.0198 12.1251 21.3384 9.77847C23.7851 7.01716 25.4771 2.88921 25.5451 2.72121C25.6451 2.48121 25.7317 2.39988 26.0464 2.39988H29.341L29.3383 2.41188C29.0383 3.81186 26.077 8.27315 25.0864 9.65847L25.0411 9.72513C24.6051 10.4371 24.2504 11.2238 25.1011 12.3304C25.1784 12.4238 25.3811 12.6424 25.6744 12.9464C26.5864 13.8878 29.7143 17.1064 29.9917 18.3864C29.8077 18.4157 29.6077 18.3944 26.5077 18.401C25.8477 18.401 25.3317 17.4144 23.3624 15.4277C21.5918 13.7051 20.4424 13.0011 19.3958 13.0011C17.3638 13.0011 17.5118 14.6504 17.5305 16.6451C17.5371 18.8077 17.5238 18.1237 17.5385 18.2597C17.4198 18.3064 17.0798 18.3997 16.1932 18.3997C7.73325 18.3997 2.22398 4.97185 2.01198 2.40521C2.08531 2.39855 3.09463 2.40255 5.40661 2.40121Z" fill="#F0F0F0"/>
</svg>
