<svg width="29" height="28" viewBox="0 0 29 28" fill="none" xmlns="http://www.w3.org/2000/svg">
<path d="M14.8592 24.9178C12.8144 24.9178 10.8021 24.3891 9.04176 23.3898C8.90085 23.3102 8.74506 23.2586 8.58344 23.238C8.42181 23.2173 8.25759 23.2282 8.1003 23.2698L4.2727 24.29L5.60643 21.4369C5.78786 21.0491 5.74078 20.5966 5.48483 20.2508C4.05793 18.3312 3.30477 16.063 3.30477 13.6937C3.30477 7.5044 8.48767 2.46965 14.8592 2.46965C21.2306 2.46965 26.4135 7.5044 26.4135 13.6937C26.4135 19.8831 21.2306 24.9178 14.8592 24.9178ZM14.8592 0.09375C7.13923 0.09375 0.859932 6.19451 0.859932 13.6937C0.859932 16.3316 1.62977 18.8647 3.09589 21.0634L0.968788 25.6142C0.772652 26.0343 0.844242 26.5259 1.15119 26.8765C1.38754 27.1442 1.7298 27.2937 2.08186 27.2937C2.87033 27.2937 7.17062 25.981 8.26506 25.6885C10.2937 26.7423 12.5587 27.2936 14.8592 27.2937C22.5781 27.2937 28.8594 21.192 28.8594 13.6937C28.8594 6.19451 22.5781 0.0947026 14.8592 0.09375Z" fill="#F0F0F0"/>
<path d="M18.2014 15.2838C17.6718 15.4944 17.3335 16.3003 16.9903 16.7118C16.8137 16.9224 16.6039 16.9557 16.3332 16.85C14.3444 16.0802 12.8194 14.7904 11.722 13.0127C11.5357 12.7374 11.5691 12.5192 11.7936 12.263C12.1251 11.8838 12.5419 11.4532 12.6311 10.9417C12.8302 9.81182 11.3092 6.30512 9.29976 7.89414C3.51864 12.4707 18.9438 24.6083 21.7279 18.0437C22.5154 16.1822 19.0801 14.9342 18.2014 15.2838Z" fill="#F0F0F0"/>
</svg>
