<svg width="130" height="130" viewBox="0 0 130 130" fill="none" xmlns="http://www.w3.org/2000/svg">
<g clip-path="url(#clip0_17_5)">
<path fill-rule="evenodd" clip-rule="evenodd" d="M28.1851 29.7182C23.6868 29.7182 20.0377 26.0619 20.0377 21.5635C20.0377 17.0723 23.694 13.416 28.1851 13.416C32.6763 13.416 36.3326 17.0723 36.3326 21.5635C36.3326 26.0619 32.6763 29.7182 28.1851 29.7182ZM12.8906 55.7369H4.89425V58.9254H12.8906V55.7369ZM0.323883 42.652C0.323883 41.3925 1.34592 40.3704 2.61267 40.3704H15.1794C16.4389 40.3704 17.461 41.3925 17.461 42.652V109.545C17.461 109.818 17.4106 110.092 17.3242 110.337L11.0553 128.445C10.3499 130.475 7.43495 130.475 6.7368 128.445L0.467832 110.344C0.374265 110.092 0.323883 109.818 0.323883 109.545V42.652ZM12.8906 51.1666V44.9408H4.89425V51.1666H12.8906ZM12.8906 107.263V63.4958H4.89425V107.263H12.8906ZM5.81553 111.834L8.89603 120.715L11.9693 111.834H5.81553ZM48.3883 120.903C47.1288 120.903 46.1068 119.88 46.1068 118.621C46.1068 113.964 42.3209 110.186 37.6714 110.186C33.0362 110.186 29.2144 113.971 29.236 118.621C29.236 122.364 32.2877 125.415 36.0303 125.415H125.106V55.7082H50.6771V118.621C50.6699 119.88 49.6479 120.903 48.3883 120.903ZM24.6656 118.621V53.4266C24.6656 46.2507 30.5027 40.4208 37.6714 40.4208C44.0627 40.4208 49.3888 45.056 50.4756 51.1378H127.395C128.654 51.1378 129.676 52.1598 129.676 53.4266V127.697C129.676 128.956 128.654 129.986 127.395 129.986H36.0303C29.7686 129.986 24.6656 124.883 24.6656 118.621ZM37.6714 105.615C40.8886 105.615 43.8324 106.788 46.1068 108.732V53.4266C46.1068 48.7698 42.3209 44.9912 37.6714 44.9912C33.0218 44.9912 29.236 48.7698 29.236 53.4266V108.732C31.5104 106.788 34.4541 105.615 37.6714 105.615ZM119.225 121.91H56.5574C55.2979 121.91 54.2758 120.888 54.2758 119.629V61.4949C54.2758 60.2353 55.2979 59.2133 56.5574 59.2133H119.225C120.485 59.2133 121.507 60.2353 121.507 61.4949V119.629C121.507 120.888 120.485 121.91 119.225 121.91ZM58.839 117.34H85.6063V105.917C85.6063 105.262 85.8942 104.622 86.398 104.19C86.434 104.154 86.4772 104.125 86.5203 104.089C86.5491 104.068 86.5851 104.046 86.6139 104.025C86.6283 104.017 86.6427 104.003 86.6571 103.996C86.7075 103.967 86.7507 103.938 86.801 103.909C86.8154 103.902 86.837 103.895 86.8514 103.888C86.8658 103.881 86.8802 103.866 86.9018 103.859C86.9162 103.852 86.9306 103.845 86.9522 103.837C86.981 103.823 87.017 103.809 87.053 103.794C87.0674 103.787 87.0889 103.78 87.1033 103.773C87.1249 103.765 87.1393 103.765 87.1609 103.758C87.1753 103.751 87.1897 103.744 87.2113 103.737C87.2257 103.737 87.2473 103.729 87.2617 103.722C87.2833 103.715 87.2977 103.715 87.3193 103.708C87.3409 103.701 87.3552 103.701 87.3768 103.693C87.3912 103.693 87.4128 103.686 87.4272 103.679C87.4488 103.679 87.4704 103.672 87.4848 103.672C87.5064 103.665 87.5208 103.665 87.5424 103.665C87.564 103.657 87.5784 103.657 87.6 103.657C87.6216 103.65 87.6359 103.65 87.6575 103.65C87.6791 103.643 87.6935 103.643 87.7151 103.643C87.7367 103.643 87.7511 103.643 87.7727 103.636H104.096C105.356 103.636 106.378 104.658 106.378 105.917C106.378 107.184 105.356 108.206 104.096 108.206H90.1766V117.34H116.937V92.8469H101.613C100.354 92.8469 99.3318 91.8249 99.3318 90.5581C99.3318 89.2986 100.354 88.2765 101.613 88.2765H116.937V63.7765H90.1766V68.5124C90.1766 69.7719 89.1546 70.794 87.8879 70.794C86.6283 70.794 85.6063 69.7719 85.6063 68.5124V63.7765H58.839V88.2765H85.6063V77.8619C85.6063 76.6023 86.6283 75.5803 87.8879 75.5803C89.1546 75.5803 90.1766 76.6023 90.1766 77.8619V94.0705C90.1766 97.0718 85.6063 97.0718 85.6063 94.0705V92.8469H58.839V117.34ZM111.265 46.2363H103.636C102.592 46.2363 101.685 45.531 101.426 44.5233L99.7996 38.2616C99.2382 37.9737 98.6984 37.6642 98.173 37.3187L91.9328 39.0461C90.9324 39.3196 89.8672 38.8877 89.3489 37.9881L85.5343 31.3736C85.0089 30.4739 85.1672 29.3368 85.9086 28.6026L90.5221 24.061V22.1897L85.9086 17.6481C85.1672 16.9212 85.0089 15.7768 85.5343 14.8771L89.3489 8.26987C89.8672 7.37019 90.9324 6.93114 91.9328 7.21184L98.173 8.93203C98.6984 8.58655 99.2382 8.27706 99.7996 7.99636L101.426 1.7274C101.685 0.719758 102.592 0.0216064 103.636 0.0216064H111.265C112.309 0.0216064 113.216 0.719758 113.475 1.7274L115.109 7.99636C115.663 8.27706 116.203 8.58655 116.728 8.93203L122.968 7.21184C123.969 6.93114 125.034 7.37019 125.552 8.26987L129.374 14.8771C129.892 15.7768 129.734 16.914 128.992 17.6481L124.379 22.1897V24.061L128.992 28.6026C129.734 29.3368 129.892 30.4739 129.367 31.3736L125.552 37.9881C125.034 38.8877 123.969 39.3196 122.968 39.0461L116.728 37.3187C116.203 37.6642 115.663 37.9737 115.109 38.2616L113.475 44.5233C113.216 45.531 112.309 46.2363 111.265 46.2363ZM105.406 41.666H109.502L110.956 36.0664C111.128 35.3826 111.618 34.814 112.273 34.5405C113.208 34.1446 114.101 33.6264 114.914 33.0074C115.483 32.5828 116.217 32.4389 116.901 32.626L122.479 34.1662L124.53 30.6251L120.406 26.5657C119.391 25.5581 119.837 24.5001 119.837 23.1254C119.837 21.7579 119.391 20.6926 120.406 19.6922L124.53 15.6328L122.479 12.0845L116.901 13.6248C116.217 13.8119 115.483 13.6751 114.914 13.2433C114.101 12.6243 113.208 12.1133 112.273 11.7174C111.618 11.4367 111.128 10.8753 110.956 10.1844L109.502 4.59198H105.406L103.953 10.1844C103.773 10.8753 103.283 11.4367 102.628 11.7174C101.693 12.1133 100.8 12.6243 99.9867 13.2433C99.4182 13.6751 98.684 13.8119 98.0003 13.6248L92.4222 12.0845L90.371 15.6328L94.4951 19.6922C95.5099 20.6926 95.0637 21.7579 95.0637 23.1254C95.0637 24.4929 95.5099 25.5581 94.4951 26.5657L90.371 30.6179L92.4222 34.1662L98.0003 32.626C98.684 32.4389 99.4182 32.5828 99.9867 33.0074C100.8 33.6264 101.693 34.1446 102.628 34.5405C103.283 34.814 103.773 35.3826 103.953 36.0664L105.406 41.666ZM107.45 32.1869C102.455 32.1869 98.3889 28.1204 98.3889 23.1254C98.3889 18.1304 102.455 14.0638 107.45 14.0638C112.446 14.0638 116.512 18.1304 116.512 23.1254C116.512 28.1204 112.446 32.1869 107.45 32.1869ZM107.45 18.6342C104.975 18.6342 102.959 20.6495 102.959 23.1254C102.959 25.6013 104.975 27.6166 107.45 27.6166C109.926 27.6166 111.942 25.6013 111.942 23.1254C111.942 20.6495 109.926 18.6342 107.45 18.6342ZM48.7986 37.693L2.61267 37.6858C1.34592 37.6858 0.323883 36.6637 0.323883 35.4042C0.323883 34.1446 1.34592 33.1226 2.61267 33.1226H5.28291V24.9175C5.28291 15.5321 12.0845 7.48535 21.1245 5.73637V2.30319C21.1245 1.04364 22.1465 0.0216064 23.4132 0.0216064H32.957C34.2166 0.0216064 35.2458 1.04364 35.2458 2.30319V5.73637C44.2786 7.48535 51.0874 15.5321 51.0874 24.9175V33.1226H53.7576C55.0172 33.1226 56.0464 34.1446 56.0464 35.4042C56.0464 36.6637 55.0172 37.6858 53.7576 37.6858L48.7986 37.693ZM46.517 33.1226V24.9175C46.517 17.1803 40.4784 10.6306 32.7699 10.0044C31.5895 9.91088 30.6755 8.91763 30.6755 7.73006V4.59198H25.6948V7.73006C25.6948 8.91763 24.7808 9.91088 23.5932 10.0044C15.8919 10.6306 9.85328 17.1803 9.85328 24.9175V33.1226H46.517ZM28.1851 17.9864C26.2131 17.9864 24.6008 19.5914 24.6008 21.5635C24.6008 23.5428 26.2131 25.1478 28.1851 25.1478C30.1572 25.1478 31.7623 23.5428 31.7623 21.5635C31.7623 19.5914 30.1572 17.9864 28.1851 17.9864Z" fill="#8CC540"/>
</g>
<defs>
<clipPath id="clip0_17_5">
<rect width="130" height="130" fill="white"/>
</clipPath>
</defs>
</svg>
