<svg width="130" height="130" viewBox="0 0 130 130" fill="none" xmlns="http://www.w3.org/2000/svg">
<g clip-path="url(#clip0_17_18)">
<path d="M116.159 106.182C109.826 111.557 90.5905 117 66.0833 117C62.1654 116.995 58.2488 116.859 54.34 116.591C54.0553 116.568 53.7689 116.602 53.4978 116.692C53.2266 116.782 52.9761 116.925 52.7611 117.113C52.5461 117.301 52.3708 117.53 52.2457 117.787C52.1206 118.043 52.0481 118.323 52.0325 118.608C51.9945 119.181 52.1856 119.746 52.5638 120.178C52.9421 120.61 53.4765 120.875 54.0497 120.913C58.055 121.189 62.0685 121.329 66.0833 121.333C92.9695 121.333 112.017 115.384 118.965 109.488C119.404 109.116 119.676 108.585 119.723 108.012C119.77 107.439 119.587 106.871 119.215 106.432C118.843 105.994 118.312 105.721 117.739 105.674C117.166 105.627 116.598 105.81 116.159 106.182ZM43.8837 115.453C41.5611 115.113 39.249 114.704 36.9504 114.229C36.3925 114.124 35.8158 114.242 35.3442 114.558C34.8727 114.874 34.5439 115.363 34.4287 115.918C34.3134 116.474 34.4209 117.053 34.728 117.53C35.035 118.008 35.5172 118.346 36.0707 118.471C38.3609 118.946 40.7745 119.373 43.251 119.741C43.5326 119.783 43.8196 119.768 44.0956 119.699C44.3717 119.63 44.6314 119.507 44.86 119.337C45.0885 119.168 45.2814 118.955 45.4277 118.711C45.5739 118.466 45.6707 118.196 45.7124 117.914C45.754 117.633 45.7399 117.346 45.6706 117.07C45.6014 116.794 45.4785 116.534 45.3089 116.305C45.1393 116.077 44.9263 115.884 44.6821 115.738C44.438 115.591 44.1652 115.495 43.8837 115.453Z" fill="#8CC540"/>
<path d="M15.1667 77.8331V91.5048C6.88784 95.5304 2.16667 100.598 2.16667 106.167C2.16667 121.084 34.6667 130 66.0834 130C91.65 130 114.617 124.542 124.583 116.096C125.022 115.723 125.294 115.191 125.34 114.616C125.386 114.042 125.202 113.473 124.828 113.035C124.455 112.596 123.922 112.324 123.348 112.278C122.774 112.233 122.205 112.417 121.767 112.79C112.695 120.493 90.3154 125.667 66.0834 125.667C30.9704 125.667 6.5 115.39 6.5 106.167C6.5 102.722 9.68284 99.3264 15.1667 96.3603V99.6666C15.1667 100.241 15.3949 100.792 15.8013 101.199C16.2076 101.605 16.7587 101.833 17.3333 101.833C17.908 101.833 18.4591 101.605 18.8654 101.199C19.2717 100.792 19.5 100.241 19.5 99.6666V94.3214C25.7828 91.8096 32.3218 89.9932 39 88.9048V95.3333C39 95.9079 39.2283 96.459 39.6346 96.8653C40.0409 97.2717 40.592 97.4999 41.1667 97.4999C41.7413 97.4999 42.2924 97.2717 42.6988 96.8653C43.1051 96.459 43.3334 95.9079 43.3334 95.3333V88.2353C44.6251 88.0506 45.9195 87.8845 47.216 87.7369C47.4988 87.7051 47.7726 87.6178 48.0217 87.4801C48.2708 87.3425 48.4904 87.1571 48.6678 86.9346C48.8453 86.712 48.9772 86.4567 49.056 86.1833C49.1347 85.9098 49.1589 85.6234 49.127 85.3406C49.0952 85.0578 49.0079 84.784 48.8702 84.5349C48.7325 84.2858 48.5472 84.0663 48.3246 83.8888C48.1021 83.7114 47.8468 83.5795 47.5733 83.5007C47.2998 83.4219 47.0135 83.3977 46.7307 83.4296C45.5715 83.5618 44.4557 83.7178 43.3334 83.8629V73.4998C48.6612 72.7155 58.5 68.4471 58.5 47.6666C58.2193 33.9216 53.2504 20.6851 44.4167 10.1508C44.0028 9.70837 43.5027 9.35535 42.9472 9.11346C42.3917 8.87158 41.7926 8.74596 41.1867 8.74434C40.5808 8.74272 39.981 8.86512 39.4242 9.10402C38.8675 9.34292 38.3655 9.69326 37.9492 10.1335C33.8825 14.9207 30.609 20.3287 28.2533 26.1516C26.1734 21.9576 23.596 18.0294 20.5768 14.4516C20.1607 14.0117 19.6592 13.6612 19.103 13.4217C18.5468 13.1822 17.9476 13.0586 17.342 13.0586C16.7364 13.0586 16.1372 13.1822 15.581 13.4217C15.0248 13.6612 14.5233 14.0117 14.1072 14.4516C5.27138 24.9991 0.295298 38.2437 0 52C0 72.7804 9.83884 77.0488 15.1667 77.8331ZM19.5 89.6241V77.8331C21.9118 77.4738 24.2046 76.5503 26.1921 75.1377C28.1797 73.7252 29.8056 71.8633 30.9378 69.7038C33.1548 71.7941 35.9774 73.1277 39 73.5128V84.5238C32.3438 85.5578 25.8101 87.2667 19.5 89.6241ZM41.1494 13C49.3162 22.7321 53.9094 34.9644 54.1667 47.6666C54.1667 60.177 50.245 67.8166 43.3334 69.1166V60.6666C43.3334 60.092 43.1051 59.5409 42.6988 59.1346C42.2924 58.7282 41.7413 58.5 41.1667 58.5C40.592 58.5 40.0409 58.7282 39.6346 59.1346C39.2283 59.5409 39 60.092 39 60.6666V69.1166C36.5574 68.6578 34.3621 67.3339 32.8163 65.3878C34.138 61.0523 34.7642 56.5326 34.6667 52C34.6287 45.0917 33.3062 38.2508 30.7667 31.8261C33.0055 24.9505 36.5287 18.5621 41.1494 13ZM17.3333 17.3333C21.2249 21.9763 24.339 27.2189 26.5547 32.8575L26.5698 32.8878C29.0243 38.9624 30.3015 45.4483 30.3333 52C30.3333 64.5103 26.4117 72.15 19.5 73.45V65.8969L25.3652 60.0318C25.7599 59.6231 25.9782 59.0758 25.9733 58.5078C25.9684 57.9397 25.7405 57.3962 25.3388 56.9945C24.9371 56.5928 24.3936 56.3649 23.8255 56.36C23.2575 56.3551 22.7101 56.5734 22.3015 56.9681L17.3333 61.9363L12.3652 56.9681C11.9565 56.5734 11.4092 56.3551 10.8411 56.36C10.273 56.3649 9.72962 56.5928 9.3279 56.9945C8.92618 57.3962 8.69831 57.9397 8.69338 58.5078C8.68844 59.0758 8.90683 59.6231 9.30151 60.0318L15.1667 65.8969V73.45C8.255 72.15 4.33334 64.5125 4.33334 52C4.615 39.3033 9.1975 27.0833 17.3333 17.3333Z" fill="#8CC540"/>
<path d="M125.838 107.014C125.949 107.276 126.111 107.513 126.314 107.713C126.517 107.913 126.757 108.07 127.021 108.177C127.285 108.283 127.568 108.337 127.852 108.334C128.137 108.332 128.418 108.273 128.681 108.162C128.943 108.051 129.18 107.889 129.38 107.686C129.579 107.483 129.737 107.243 129.843 106.979C129.95 106.715 130.004 106.432 130.001 106.148C129.999 105.863 129.94 105.582 129.829 105.319L105.395 47.5778C105.909 45.9095 106.169 44.1697 106.167 42.4233C106.168 39.7577 105.587 37.1239 104.464 34.7062C103.342 32.2885 101.704 30.1454 99.6667 28.4267V23.8333C99.6611 22.4938 99.2418 21.1886 98.4661 20.0965C97.6905 19.0043 96.5963 18.1785 95.3333 17.732V7.58333C95.3333 5.57211 94.5344 3.64326 93.1122 2.22111C91.6901 0.798956 89.7612 0 87.75 0C85.7388 0 83.8099 0.798956 82.3878 2.22111C80.9656 3.64326 80.1667 5.57211 80.1667 7.58333V17.732C78.9037 18.1785 77.8095 19.0043 77.0339 20.0965C76.2582 21.1886 75.8389 22.4938 75.8333 23.8333V28.4267C73.7962 30.1458 72.159 32.289 71.0363 34.7066C69.9136 37.1242 69.3324 39.7578 69.3333 42.4233C69.331 44.171 69.5902 45.9091 70.1025 47.58L45.6733 105.319C45.4665 105.845 45.4729 106.43 45.6912 106.951C45.9094 107.471 46.3223 107.886 46.8419 108.107C47.3615 108.328 47.9468 108.337 48.4731 108.133C48.9995 107.929 49.4253 107.527 49.66 107.014L51.9783 101.534L64.0228 96.3668C66.0236 95.4987 67.6273 93.9135 68.5187 91.923L82.6453 60.1163C85.9702 61.0886 89.5038 61.0886 92.8287 60.1163L106.977 91.936C107.869 93.9271 109.475 95.5118 111.477 96.3777L123.511 101.541L125.838 107.014ZM93.1667 42.8133C93.1667 43.5247 93.0266 44.229 92.7543 44.8862C92.4821 45.5434 92.0831 46.1405 91.5802 46.6435C91.0772 47.1465 90.48 47.5455 89.8229 47.8177C89.1657 48.0899 88.4613 48.23 87.75 48.23C87.0387 48.23 86.3343 48.0899 85.6771 47.8177C85.02 47.5455 84.4228 47.1465 83.9198 46.6435C83.4168 46.1405 83.0179 45.5434 82.7456 44.8862C82.4734 44.229 82.3333 43.5247 82.3333 42.8133C82.3398 42.2522 82.4373 41.6975 82.6193 41.1667H92.8785C93.0648 41.6953 93.1602 42.2522 93.1667 42.8133ZM84.5 7.58333C84.5 6.72138 84.8424 5.89473 85.4519 5.28524C86.0614 4.67574 86.888 4.33333 87.75 4.33333C88.6119 4.33333 89.4386 4.67574 90.0481 5.28524C90.6576 5.89473 91 6.72138 91 7.58333V17.3333H84.5V7.58333ZM80.1667 23.8333C80.1667 23.2587 80.3949 22.7076 80.8013 22.3013C81.2076 21.8949 81.7587 21.6667 82.3333 21.6667H93.1667C93.7413 21.6667 94.2924 21.8949 94.6987 22.3013C95.1051 22.7076 95.3333 23.2587 95.3333 23.8333V34.6667C95.3333 35.2413 95.1051 35.7924 94.6987 36.1987C94.2924 36.6051 93.7413 36.8333 93.1667 36.8333H82.3333C81.7587 36.8333 81.2076 36.6051 80.8013 36.1987C80.3949 35.7924 80.1667 35.2413 80.1667 34.6667V23.8333ZM62.3025 92.3888L54.4158 95.7667L72.5833 52.819C74.1561 55.1212 76.2303 57.0369 78.65 58.422L65.65 87.724L64.5667 90.155C64.1167 91.1557 63.3092 91.9524 62.3025 92.3888ZM82.3117 55.4212C80.4729 54.6471 78.82 53.4903 77.4632 52.0277C76.1063 50.5651 75.0765 48.8303 74.4423 46.9387C73.9197 45.491 73.6571 43.9624 73.6667 42.4233C73.6637 39.7574 74.4238 37.1463 75.8572 34.8985C75.9222 36.8723 76.8885 38.7075 78.4767 39.8818C78.1673 40.8285 78.0065 41.8174 78 42.8133C78 45.3992 79.0272 47.8791 80.8557 49.7076C82.6842 51.5361 85.1641 52.5633 87.75 52.5633C90.3359 52.5633 92.8158 51.5361 94.6443 49.7076C96.4728 47.8791 97.5 45.3992 97.5 42.8133C97.4969 41.813 97.3368 40.8194 97.0255 39.8688C97.8071 39.2901 98.4482 38.5428 98.9013 37.6823C99.3544 36.8219 99.6079 35.8704 99.6428 34.8985C101.076 37.1463 101.836 39.7574 101.833 42.4233C101.842 43.9833 101.573 45.5325 101.036 46.9993C100.403 48.8817 99.3743 50.6068 98.0192 52.0587C96.6641 53.5106 95.014 54.6556 93.1797 55.4168C89.7008 56.8591 85.7916 56.8607 82.3117 55.4212ZM113.206 92.3932C112.197 91.9599 111.386 91.1646 110.933 90.1637L96.85 58.4242C99.2729 57.0462 101.348 55.1318 102.917 52.8277L121.082 95.7667L113.206 92.3932Z" fill="#8CC540"/>
</g>
<defs>
<clipPath id="clip0_17_18">
<rect width="130" height="130" fill="white"/>
</clipPath>
</defs>
</svg>
